<?xml version="1.0" encoding="iso-8859-1"?>
<!-- Generator: Adobe Illustrator 18.0.0, SVG Export Plug-In . SVG Version: 6.00 Build 0)  -->
<!DOCTYPE svg PUBLIC "-//W3C//DTD SVG 1.1//EN" "http://www.w3.org/Graphics/SVG/1.1/DTD/svg11.dtd">
<svg version="1.1" id="Capa_1" xmlns="http://www.w3.org/2000/svg" xmlns:xlink="http://www.w3.org/1999/xlink" x="0px" y="0px"
	 viewBox="0 0 188.148 188.148" style="enable-background:new 0 0 188.148 188.148;" xml:space="preserve">
<g>
	<g>
		<defs>
			<circle id="SVGID_1_" cx="94.074" cy="94.074" r="94.074"/>
		</defs>
		<use xlink:href="#SVGID_1_"  style="overflow:visible;fill:#B7DC78;"/>
		<clipPath id="SVGID_2_">
			<use xlink:href="#SVGID_1_"  style="overflow:visible;"/>
		</clipPath>
		<g style="clip-path:url(#SVGID_2_);">
			<g>
				<g>
					<path style="fill:#141720;" d="M58.416,149.355c0,3.979-1.573,7.402-3.825,8.842c-0.73,0.474-1.532,0.73-2.375,0.73
						c-0.843,0-1.645-0.257-2.375-0.73c-2.252-1.439-3.825-4.862-3.825-8.842c0-2.066,0.421-3.989,1.162-5.552
						c1.11-2.437,2.951-4.02,5.038-4.02c2.087,0,3.927,1.583,5.038,4.02C57.995,145.365,58.416,147.288,58.416,149.355z"/>
					<path style="fill:#141720;" d="M58.416,138.24c0,2.077-0.421,4-1.162,5.563c-1.121,2.427-2.961,4-5.038,4
						c-2.077,0-3.917-1.573-5.038-4c-0.74-1.563-1.162-3.485-1.162-5.563c0-2.076,0.421-3.999,1.162-5.562
						c1.121-2.427,2.961-4.01,5.038-4.01c2.077,0,3.917,1.583,5.038,4.01C57.995,134.241,58.416,136.164,58.416,138.24z"/>
					<path style="fill:#141720;" d="M58.416,127.116c0,2.077-0.421,3.999-1.162,5.562c-1.121,2.426-2.961,4.01-5.038,4.01
						c-2.077,0-3.917-1.584-5.038-4.01c-0.74-1.563-1.162-3.485-1.162-5.562c0-2.066,0.421-3.989,1.162-5.552
						c1.11-2.437,2.951-4.021,5.038-4.021c2.087,0,3.927,1.584,5.038,4.021C57.995,123.127,58.416,125.05,58.416,127.116z"/>
					<path style="fill:#141720;" d="M58.416,116.002c0,2.077-0.421,3.999-1.162,5.563c-1.121,2.426-2.961,4.01-5.038,4.01
						c-2.077,0-3.917-1.584-5.038-4.01c-0.74-1.563-1.162-3.485-1.162-5.563c0-2.066,0.421-3.989,1.162-5.552
						c1.11-2.437,2.951-4.021,5.038-4.021c2.087,0,3.927,1.584,5.038,4.021C57.995,112.013,58.416,113.936,58.416,116.002z"/>
					<path style="fill:#141720;" d="M58.416,104.878c0,1.09-0.113,2.138-0.339,3.115c-0.195,0.884-0.473,1.717-0.823,2.457
						c-1.121,2.426-2.961,3.999-5.038,3.999c-2.077,0-3.917-1.573-5.038-3.999c-0.74-1.563-1.162-3.485-1.162-5.572
						c0-2.066,0.421-3.989,1.162-5.553c1.11-2.426,2.951-4.01,5.038-4.01c0.462,0,0.904,0.083,1.336,0.227
						c1.532,0.514,2.837,1.892,3.701,3.783C57.995,100.889,58.416,102.812,58.416,104.878z"/>
					<path style="fill:#141720;" d="M58.416,93.764c0,2.076-0.421,3.999-1.162,5.562c-0.473,1.039-1.09,1.923-1.799,2.592
						c-0.946,0.904-2.056,1.418-3.238,1.418c-2.077,0-3.917-1.583-5.038-4.01c-0.74-1.563-1.162-3.485-1.162-5.562
						c0-2.066,0.421-3.989,1.162-5.552c1.11-2.438,2.951-4.021,5.038-4.021c2.087,0,3.927,1.583,5.038,4.021
						C57.995,89.774,58.416,91.697,58.416,93.764z"/>
					<path style="fill:#141720;" d="M58.416,82.649c0,0.113,0,0.227-0.01,0.329c-0.041,1.953-0.452,3.753-1.151,5.233
						c-0.997,2.158-2.56,3.649-4.37,3.947c-0.216,0.041-0.442,0.063-0.668,0.063c-2.077,0-3.917-1.584-5.038-4.01
						c-0.74-1.563-1.162-3.485-1.162-5.563c0-2.077,0.421-4,1.162-5.563c0.421-0.915,0.946-1.717,1.553-2.354
						c0.997-1.049,2.2-1.655,3.485-1.655c2.077,0,3.917,1.584,5.038,4.01C57.995,78.649,58.416,80.572,58.416,82.649z"/>
					<path style="fill:#141720;" d="M58.416,71.524c0,2.077-0.421,4-1.162,5.563c-0.997,2.17-2.581,3.671-4.4,3.958
						c-0.01-0.01-0.01,0-0.01,0c-0.205,0.031-0.411,0.052-0.627,0.052c-2.077,0-3.917-1.583-5.038-4.01
						c-0.74-1.563-1.162-3.485-1.162-5.563c0-1.202,0.144-2.364,0.411-3.423c0.894-3.589,3.146-6.139,5.789-6.139
						C55.64,61.963,58.416,66.24,58.416,71.524z"/>
				</g>
				<polygon style="fill:#141720;" points="58.283,170.37 46.15,170.37 49.842,158.196 52.217,150.352 54.591,158.196 
					55.743,161.98 				"/>
			</g>
			<g>
				<g>
					<ellipse style="fill:#141720;" cx="135.939" cy="149.354" rx="6.198" ry="9.57"/>
					<ellipse style="fill:#141720;" cx="135.939" cy="138.235" rx="6.198" ry="9.57"/>
					<ellipse style="fill:#141720;" cx="135.939" cy="127.118" rx="6.198" ry="9.569"/>
					<ellipse style="fill:#141720;" cx="135.939" cy="116" rx="6.198" ry="9.57"/>
					<ellipse style="fill:#141720;" cx="135.939" cy="104.882" rx="6.198" ry="9.57"/>
					<ellipse style="fill:#141720;" cx="135.939" cy="93.765" rx="6.198" ry="9.569"/>
					<ellipse style="fill:#141720;" cx="135.939" cy="82.646" rx="6.198" ry="9.57"/>
					<ellipse style="fill:#141720;" cx="135.939" cy="71.528" rx="6.198" ry="9.57"/>
				</g>
				<polygon style="fill:#141720;" points="135.939,150.347 129.874,170.371 135.802,170.371 136.077,170.371 142.005,170.371 				
					"/>
			</g>
			<path style="fill:#DFB28B;" d="M148.614,200.751v0.011H39.54v-0.011c0-6.158,1.018-12.091,2.91-17.611
				c0.339-0.998,0.709-1.984,1.11-2.962v-0.01c0.391-0.977,0.823-1.933,1.275-2.879c1.141-2.405,2.468-4.719,3.948-6.919
				c0.843-1.255,1.748-2.488,2.694-3.671c0.658-0.813,1.326-1.604,2.015-2.364c0.339-0.391,0.699-0.771,1.059-1.152
				c0.36-0.37,0.72-0.74,1.09-1.109c0.031-0.031,0.072-0.072,0.103-0.093c1.81-1.81,3.752-3.465,5.788-4.986
				c1.039-0.771,2.087-1.491,3.177-2.191c0.134-0.093,0.277-0.175,0.421-0.257c0.946-0.606,1.913-1.172,2.899-1.707
				c0.01-0.01,0.021-0.01,0.031-0.01c0.01,0,0.01,0,0.01,0l0.01-0.011c0.36-0.185,0.71-0.391,1.059-0.617
				c0.082-0.041,0.154-0.082,0.237-0.133c0.288-0.175,0.576-0.36,0.863-0.545c0.093-0.063,0.185-0.124,0.277-0.175
				c0.247-0.165,0.494-0.329,0.741-0.515c0.308-0.205,0.617-0.432,0.915-0.657c0-0.011,0-0.011,0.01,0
				c0.298-0.217,0.596-0.442,0.884-0.679l0.01-0.011c1.717-1.367,3.311-2.899,4.74-4.575c1.286-1.501,2.447-3.115,3.455-4.832
				c1.121-1.871,2.067-3.855,2.807-5.933c0.37-1.049,0.699-2.118,0.966-3.218c0.206-0.771,0.37-1.553,0.514-2.345
				c0.35-1.974,0.535-4.009,0.535-6.086l7.947,0.041h0.041l1.387,0.011l6.745,0.03c0,2.036,0.175,4.03,0.514,5.974
				c0.134,0.802,0.309,1.594,0.515,2.375c0.257,1.079,0.575,2.139,0.936,3.166c0.74,2.098,1.676,4.103,2.796,5.984
				c0.915,1.563,1.954,3.033,3.105,4.421c1.501,1.841,3.197,3.506,5.059,4.997c0.268,0.225,0.534,0.441,0.812,0.637
				c0.083,0.072,0.176,0.134,0.268,0.195c0.007,0.005,0.015,0.013,0.022,0.018c0.15,0.112,0.301,0.232,0.451,0.331
				c0.246,0.165,0.482,0.34,0.729,0.504c0.082,0.061,0.154,0.113,0.236,0.165c0.186,0.123,0.37,0.246,0.556,0.37
				c0.195,0.123,0.38,0.236,0.575,0.35c0.216,0.123,0.422,0.257,0.638,0.38c0.205,0.134,0.422,0.257,0.638,0.37
				c0.071,0.021,0.123,0.062,0.184,0.093l0.34,0.185c0.071,0.042,0.144,0.083,0.205,0.124c0.277,0.154,0.545,0.309,0.813,0.463
				c0.442,0.257,0.894,0.524,1.326,0.802c0.422,0.257,0.843,0.524,1.254,0.822c0.854,0.545,1.687,1.142,2.499,1.758
				c0,0.011,0.01,0.011,0.01,0.011h0.011c1.038,0.77,2.046,1.594,3.033,2.436c0.925,0.792,1.81,1.614,2.673,2.478
				c0.062,0.052,0.113,0.104,0.175,0.165c2.519,2.508,4.791,5.253,6.775,8.215C145.211,179.047,148.614,189.493,148.614,200.751z"/>
			<path style="fill:#9D78DC;" d="M148.614,200.751H39.54c0-6.158,1.018-12.091,2.91-17.611c0.339-0.998,0.709-1.984,1.11-2.962
				v-0.01c0.391-0.977,0.823-1.933,1.275-2.879c1.141-2.405,2.468-4.719,3.948-6.919c0.843-1.255,1.748-2.488,2.694-3.671
				c0.658-0.813,1.326-1.604,2.015-2.364c0.339-0.391,0.699-0.771,1.059-1.152c0.36-0.37,0.72-0.74,1.09-1.109
				c0.031-0.031,0.072-0.072,0.103-0.093c1.81-1.81,3.752-3.465,5.788-4.986c1.039-0.771,2.087-1.491,3.177-2.191
				c0.134-0.093,0.277-0.175,0.421-0.257c0.946-0.606,1.913-1.172,2.899-1.707c0-0.01,0.01-0.01,0.01-0.01
				c0.01-0.011,0.01-0.011,0.021,0c0.01,0,0.01,0,0.01,0v-0.011h0.01c0.36-0.205,0.71-0.411,1.059-0.617
				c0.082-0.041,0.154-0.082,0.237-0.133c0.288-0.175,0.576-0.36,0.863-0.545c0.277-0.186,0.555-0.381,0.833-0.565
				c0.113-0.083,0.227-0.165,0.34-0.247c0.257-0.175,0.514-0.36,0.761-0.545c0.021-0.021,0.051-0.041,0.072-0.052
				c0.267-0.205,0.535-0.421,0.802-0.638l0.011-0.01c0.01,0.01,0.01,0.01,0.02,0.02c0.587,0.597,1.183,1.172,1.82,1.717
				c0.309,0.268,0.627,0.524,0.946,0.781c0.01,0.02,0.01,0.02,0.021,0.011c0.298,0.236,0.586,0.463,0.884,0.688
				c0.072,0.052,0.133,0.104,0.206,0.145c0.308,0.216,0.617,0.432,0.925,0.637c0.699,0.463,1.419,0.895,2.148,1.296
				c0.371,0.206,0.741,0.401,1.121,0.586c0.38,0.195,0.771,0.37,1.172,0.535c0.051,0.041,0.103,0.061,0.154,0.071
				c0.884,0.381,1.789,0.72,2.714,1.019c0.35,0.112,0.699,0.216,1.059,0.308c0.318,0.083,0.637,0.165,0.956,0.247
				c0.072,0.031,0.144,0.041,0.226,0.052c1.038,0.236,2.107,0.421,3.198,0.555c0.37,0.041,0.74,0.083,1.121,0.113
				c0.761,0.062,1.521,0.093,2.293,0.093h0.082c0.226,0,0.452,0,0.678-0.011c0.113,0.011,0.227,0.011,0.34-0.01
				c0.112,0,0.216-0.011,0.328-0.02c0.483-0.021,0.957-0.052,1.43-0.093c0.411-0.041,0.822-0.093,1.224-0.145
				c0.113,0,0.216-0.01,0.318-0.041c0.318-0.041,0.627-0.102,0.936-0.153c0.124-0.011,0.247-0.031,0.37-0.072
				c0.227-0.041,0.452-0.093,0.668-0.134c0.227-0.041,0.442-0.093,0.658-0.154c0.453-0.113,0.905-0.227,1.347-0.36
				c0.442-0.133,0.885-0.267,1.316-0.421c0.463-0.144,0.904-0.318,1.347-0.504c0.216-0.082,0.432-0.164,0.638-0.257
				c1.059-0.452,2.077-0.967,3.064-1.553c0.35-0.195,0.689-0.401,1.028-0.606c0.226-0.145,0.442-0.288,0.658-0.442
				c0.185-0.123,0.37-0.246,0.545-0.37c0.37-0.257,0.73-0.524,1.09-0.802c0.359-0.277,0.709-0.565,1.049-0.854
				c0.688-0.575,1.347-1.192,1.974-1.83l0.021-0.021c0.35,0.288,0.71,0.565,1.069,0.843c0.007,0.005,0.015,0.013,0.022,0.018
				c0.044,0.033,0.088,0.064,0.132,0.097c0.02,0.013,0.04,0.022,0.062,0.039c0.319,0.236,0.647,0.474,0.987,0.699
				c0.082,0.061,0.154,0.113,0.236,0.165c0.37,0.246,0.751,0.483,1.131,0.72c0.422,0.257,0.854,0.504,1.285,0.74
				c0.072,0.02,0.124,0.061,0.186,0.092c0.112,0.063,0.226,0.134,0.329,0.195c0.071,0.042,0.144,0.083,0.205,0.124
				c0.277,0.154,0.545,0.309,0.813,0.463c0.442,0.257,0.894,0.524,1.326,0.802c0.422,0.257,0.843,0.524,1.254,0.822
				c0.854,0.545,1.687,1.142,2.499,1.758h0.021c1.038,0.781,2.057,1.594,3.033,2.447c0.925,0.792,1.81,1.614,2.673,2.478
				c0.062,0.052,0.113,0.104,0.175,0.165c2.519,2.508,4.791,5.253,6.775,8.215C145.211,179.047,148.614,189.493,148.614,200.751z"/>
			<g>
				<path style="fill:#E7ECF2;" d="M94.165,158.351l-0.031,0.052l-0.01,0.02c-0.021,0.021-0.031,0.052-0.051,0.072
					c-2.899,4.451-7.681,6.775-12.492,6.775c-3.938,0-7.896-1.553-10.867-4.74l-5.583-5.983c0.946-0.606,1.913-1.172,2.899-1.707
					c0.01-0.01,0.021-0.01,0.031-0.01c0.01,0,0.01,0,0.01,0v-0.011h0.01c0.36-0.205,0.71-0.411,1.059-0.617
					c0.082-0.041,0.154-0.082,0.237-0.133c0.288-0.175,0.576-0.36,0.863-0.545c0.093-0.063,0.185-0.124,0.277-0.175
					c0.186-0.134,0.371-0.258,0.555-0.391c0.062-0.042,0.124-0.083,0.186-0.124c0.308-0.216,0.617-0.432,0.915-0.657
					c0-0.011,0-0.011,0.01,0c0.021-0.031,0.041-0.042,0.062-0.063c0.267-0.205,0.535-0.421,0.802-0.638
					c0.011,0.011,0.011,0.011,0.021,0.021c0.586,0.596,1.192,1.172,1.83,1.706c0.309,0.277,0.627,0.545,0.946,0.781
					c0.01,0.02,0.01,0.02,0.021,0.011c0.287,0.247,0.586,0.473,0.884,0.688c0.072,0.052,0.133,0.104,0.206,0.145
					c0.298,0.226,0.606,0.441,0.925,0.637c0.689,0.474,1.408,0.905,2.148,1.296c0.371,0.206,0.741,0.401,1.121,0.586
					c0.391,0.195,0.781,0.37,1.172,0.535c0.051,0.041,0.103,0.061,0.154,0.071c0.884,0.391,1.789,0.72,2.714,1.019
					c0.35,0.112,0.699,0.216,1.059,0.308c0.318,0.093,0.637,0.175,0.956,0.247c0.072,0.031,0.144,0.041,0.226,0.052
					c1.038,0.257,2.107,0.441,3.198,0.555c0.37,0.052,0.74,0.093,1.121,0.113c0.75,0.072,1.511,0.103,2.282,0.103H94.165z"/>
				<path style="fill:#E7ECF2;" d="M123.129,154.626l-5.501,5.901c-2.972,3.188-6.93,4.74-10.878,4.74
					c-4.832,0-9.644-2.345-12.533-6.848l-0.01-0.021l-0.041-0.052c8.204-0.01,15.628-3.402,20.964-8.842l0.01-0.01
					c0.73,0.607,1.491,1.172,2.272,1.696c0.082,0.062,0.154,0.113,0.236,0.164c0.37,0.247,0.751,0.483,1.131,0.72
					c0.422,0.257,0.854,0.504,1.285,0.74c0.072,0.02,0.124,0.062,0.186,0.093c0.904,0.504,1.799,1.028,2.673,1.583
					C122.995,154.533,123.057,154.574,123.129,154.626z"/>
			</g>
			<path style="fill:#141720;" d="M123.209,34.008c0,6.981-1.398,13.623-3.938,19.679c-4.863,11.577-13.89,20.984-25.199,26.341
				c-6.601,3.126-13.973,4.874-21.756,4.874c-4.822,0-9.49-0.669-13.911-1.923c-1.902-0.545-3.752-1.192-5.552-1.934
				c-0.01-0.01-0.01,0-0.01,0c-0.216-0.092-0.421-0.185-0.627-0.277c-0.175-0.071-0.339-0.144-0.504-0.216
				c-1.11-1.86-2.107-3.804-2.981-5.819c-0.915-2.128-1.687-4.349-2.303-6.631c-1.1-4.082-1.686-8.4-1.686-12.831
				c0-27.235,22.084-49.32,49.33-49.32c8.842,0,17.139,2.324,24.315,6.405c0.308,0.648,0.596,1.306,0.884,1.975
				c0.946,2.241,1.717,4.555,2.334,6.939C122.654,25.341,123.209,29.607,123.209,34.008z"/>
			<path style="fill:#141720;" d="M143.392,55.271c0,7.68-1.758,14.948-4.884,21.426c-8.513-5.531-15.268-13.54-19.236-23.01
				c-2.55-6.056-3.948-12.697-3.948-19.679c0-6.98,1.398-13.622,3.948-19.678c0.164-0.391,0.329-0.771,0.504-1.162
				C133.933,21.835,143.392,37.452,143.392,55.271z"/>
			<path style="fill:#DFB28B;" d="M135.938,52.792v31.399c0,0.411-0.01,0.813-0.02,1.224c-0.01,0.37-0.021,0.729-0.041,1.1
				c-0.011,0.329-0.031,0.658-0.062,0.987c-0.011,0.236-0.031,0.473-0.052,0.71c-0.01,0.144-0.02,0.277-0.041,0.421
				c-0.02,0.257-0.041,0.525-0.082,0.781c-0.041,0.494-0.104,0.978-0.175,1.471c-0.011,0.123-0.031,0.247-0.052,0.37
				c-0.03,0.247-0.072,0.493-0.113,0.74v0.031c-0.01,0.051-0.021,0.092-0.021,0.144c-0.061,0.309-0.113,0.617-0.164,0.925
				c-0.093,0.494-0.186,0.987-0.288,1.471c-0.011,0.021-0.011,0.041-0.02,0.062c-0.011,0.072-0.021,0.145-0.041,0.216
				c-0.011,0.021-0.011,0.041-0.021,0.062c-0.041,0.216-0.093,0.433-0.145,0.638c-0.01,0.052-0.02,0.093-0.03,0.145
				c-0.02,0.112-0.041,0.226-0.082,0.339c-0.031,0.185-0.083,0.37-0.124,0.556c-0.03,0.103-0.051,0.215-0.093,0.318
				c-0.02,0.093-0.051,0.185-0.071,0.268c-0.216,0.843-0.463,1.665-0.72,2.487c-0.123,0.391-0.247,0.771-0.381,1.162
				c-0.01,0.041-0.03,0.082-0.041,0.123c-0.113,0.329-0.236,0.669-0.35,0.998c-0.01,0.021-0.01,0.03-0.02,0.051
				c-0.041,0.104-0.082,0.206-0.123,0.319c-0.124,0.328-0.247,0.658-0.381,0.986c-0.154,0.401-0.318,0.792-0.483,1.183
				c-0.144,0.35-0.298,0.699-0.452,1.049c-0.021,0.062-0.051,0.113-0.071,0.175c-0.175,0.37-0.34,0.74-0.515,1.1
				c-0.175,0.381-0.359,0.762-0.555,1.142c-0.011,0.021-0.02,0.031-0.031,0.052c-0.359,0.729-0.75,1.47-1.142,2.18l-0.555,0.986
				c-1.583,2.725-3.342,5.285-5.254,7.649c-0.257,0.34-0.524,0.669-0.802,0.987c-0.381,0.463-0.772,0.915-1.162,1.357
				c-0.329,0.37-0.668,0.75-1.018,1.11c-0.011,0.021-0.021,0.03-0.041,0.051c-0.987,1.06-1.995,2.066-3.023,3.013
				c-0.205,0.206-0.421,0.391-0.637,0.586c-0.35,0.318-0.699,0.627-1.06,0.926c-0.277,0.246-0.565,0.482-0.852,0.72
				c-0.74,0.606-1.481,1.192-2.231,1.737c-0.309,0.236-0.627,0.463-0.946,0.679c-0.514,0.37-1.038,0.72-1.563,1.059
				c-0.288,0.195-0.586,0.381-0.884,0.556c-0.052,0.03-0.093,0.062-0.145,0.082c-0.997,0.617-2.015,1.182-3.012,1.676
				c-0.258,0.134-0.515,0.257-0.771,0.381c-0.257,0.123-0.525,0.246-0.802,0.369c-0.34,0.154-0.679,0.299-1.019,0.433
				c-0.133,0.062-0.267,0.112-0.4,0.154c-0.401,0.164-0.812,0.318-1.213,0.452c-0.504,0.184-1.019,0.339-1.522,0.483
				c-0.349,0.102-0.709,0.195-1.059,0.277c-0.021,0.01-0.041,0.021-0.072,0.021c-0.35,0.082-0.699,0.164-1.048,0.227
				c-0.093,0.02-0.186,0.041-0.278,0.051c-0.288,0.052-0.575,0.104-0.863,0.134c-0.411,0.061-0.822,0.113-1.234,0.134
				c-0.143,0.021-0.277,0.031-0.421,0.031c-0.329,0.021-0.648,0.03-0.966,0.03h-0.041c-0.318,0-0.637-0.01-0.956-0.03
				c-0.124,0-0.247-0.011-0.37-0.031c-0.288-0.011-0.586-0.041-0.895-0.082c-0.062,0-0.134-0.011-0.195-0.02
				c-0.38-0.052-0.761-0.113-1.151-0.186c-0.329-0.052-0.658-0.123-0.997-0.205c-1.758-0.401-3.567-1.008-5.397-1.82
				c-1.563-0.688-3.146-1.521-4.719-2.488c-0.093-0.051-0.175-0.112-0.268-0.164c-0.699-0.432-1.408-0.895-2.097-1.378
				c-0.391-0.277-0.781-0.555-1.172-0.843c-1.224-0.895-2.437-1.871-3.629-2.92c-0.329-0.298-0.658-0.597-0.987-0.905
				c-0.329-0.298-0.658-0.606-0.976-0.904c-0.761-0.73-1.501-1.48-2.211-2.272c-0.052-0.041-0.092-0.093-0.134-0.134
				c-0.298-0.318-0.596-0.647-0.895-0.986c-0.822-0.926-1.624-1.882-2.385-2.879c-0.298-0.36-0.576-0.73-0.853-1.101
				c-1.039-1.378-2.026-2.817-2.951-4.308c-0.247-0.4-0.494-0.813-0.73-1.213c-0.288-0.483-0.565-0.976-0.843-1.471
				c-0.401-0.72-0.781-1.449-1.151-2.189c-0.597-1.162-1.142-2.354-1.645-3.568c-0.124-0.287-0.247-0.575-0.35-0.863
				c-0.164-0.37-0.309-0.75-0.442-1.12c-0.062-0.176-0.133-0.35-0.185-0.524c-0.144-0.371-0.277-0.74-0.401-1.111
				c-0.185-0.544-0.36-1.1-0.535-1.654c-0.165-0.535-0.319-1.07-0.463-1.614c-0.164-0.576-0.318-1.162-0.452-1.759
				c-0.01-0.062-0.031-0.123-0.041-0.184c0-0.021-0.01-0.031-0.01-0.052c-0.195-0.802-0.36-1.624-0.514-2.447
				c-0.062-0.308-0.113-0.616-0.154-0.936c-0.144-0.802-0.246-1.624-0.339-2.446c-0.051-0.36-0.082-0.72-0.113-1.08
				c-0.041-0.38-0.072-0.75-0.093-1.131c-0.051-0.688-0.082-1.388-0.103-2.087c-0.011-0.411-0.021-0.813-0.021-1.224V52.792
				c0-22.341,17.509-40.601,39.563-41.793c0.041-0.011,0.072-0.011,0.113-0.011c0.288-0.01,0.576-0.021,0.864-0.031
				c0.432-0.01,0.854-0.021,1.285-0.021h0.041c0.442,0,0.884,0.011,1.326,0.021h0.093c0.309,0.011,0.617,0.021,0.926,0.042h0.03
				c0.145,0.01,0.288,0.021,0.432,0.03c0.309,0.021,0.617,0.041,0.915,0.072c0.154,0.01,0.299,0.021,0.453,0.041
				c0.103,0.01,0.195,0.021,0.298,0.03c1.635,0.176,3.238,0.442,4.802,0.792c2.725,0.617,5.346,1.501,7.834,2.622
				c2.323,1.038,4.534,2.282,6.601,3.711c0.967,0.658,1.892,1.357,2.786,2.098c0.35,0.288,0.688,0.576,1.028,0.864v0.01
				c1.984,1.728,3.804,3.63,5.418,5.706c5.511,7.023,8.832,15.844,8.904,25.446C135.938,52.546,135.938,52.669,135.938,52.792z"/>
			<path style="fill:#141720;" d="M143.392,55.271c0,4.421-0.586,8.708-1.686,12.789c-0.596,2.293-1.377,4.514-2.303,6.652
				c-0.277,0.668-0.576,1.337-0.895,1.984c-0.874-0.565-1.737-1.162-2.57-1.799c-0.617-0.442-1.224-0.915-1.819-1.398
				c-1.491-1.213-2.91-2.509-4.257-3.876c-4.473-4.565-8.081-9.963-10.59-15.937c-4.863,11.577-13.89,20.984-25.199,26.341
				c-6.601,3.126-13.973,4.874-21.756,4.874c-4.822,0-9.49-0.669-13.911-1.923c-1.902-0.545-3.752-1.192-5.552-1.934
				c-0.01-0.01-0.01,0-0.01,0c-0.216-0.092-0.421-0.185-0.627-0.277c-0.175-0.071-0.339-0.144-0.504-0.216
				c-1.11-1.86-2.107-3.804-2.981-5.819c-0.915-2.128-1.687-4.349-2.303-6.631c-1.1-4.082-1.686-8.4-1.686-12.831
				c0-27.235,22.084-49.32,49.33-49.32c8.842,0,17.139,2.324,24.315,6.405c0.462,0.257,0.925,0.535,1.388,0.813
				C133.933,21.835,143.392,37.452,143.392,55.271z"/>
		</g>
	</g>
</g>
<g>
</g>
<g>
</g>
<g>
</g>
<g>
</g>
<g>
</g>
<g>
</g>
<g>
</g>
<g>
</g>
<g>
</g>
<g>
</g>
<g>
</g>
<g>
</g>
<g>
</g>
<g>
</g>
<g>
</g>
</svg>
