<?xml version="1.0" encoding="iso-8859-1"?>
<!-- Generator: Adobe Illustrator 18.0.0, SVG Export Plug-In . SVG Version: 6.00 Build 0)  -->
<!DOCTYPE svg PUBLIC "-//W3C//DTD SVG 1.1//EN" "http://www.w3.org/Graphics/SVG/1.1/DTD/svg11.dtd">
<svg version="1.1" id="Capa_1" xmlns="http://www.w3.org/2000/svg" xmlns:xlink="http://www.w3.org/1999/xlink" x="0px" y="0px"
	 viewBox="0 0 188.149 188.149" style="enable-background:new 0 0 188.149 188.149;" xml:space="preserve">
<g>
	<defs>
		<circle id="SVGID_1_" cx="94.074" cy="94.074" r="94.074"/>
	</defs>
	<use xlink:href="#SVGID_1_"  style="overflow:visible;fill:#E1854F;"/>
	<clipPath id="SVGID_2_">
		<use xlink:href="#SVGID_1_"  style="overflow:visible;"/>
	</clipPath>
	<g style="clip-path:url(#SVGID_2_);">
		<g>
			<path style="fill:#ECC19C;" d="M148.616,200.748v0.011H39.541v-0.011c0-6.158,1.018-12.091,2.91-17.612
				c0.339-0.997,0.71-1.983,1.11-2.961v-0.01c0.391-0.977,0.822-1.933,1.275-2.879c1.799-3.794,4.04-7.341,6.642-10.59
				c0.658-0.813,1.326-1.604,2.015-2.364c0.339-0.392,0.699-0.771,1.059-1.152c0.36-0.37,0.72-0.74,1.09-1.11
				c1.84-1.84,3.814-3.526,5.891-5.079c1.039-0.771,2.087-1.49,3.177-2.189c0.462-0.298,0.935-0.586,1.408-0.863
				c0.277-0.165,0.545-0.329,0.822-0.494c0.124-0.062,0.237-0.123,0.36-0.195c0.247-0.144,0.493-0.277,0.74-0.411
				c0.021-0.02,0.041-0.02,0.041-0.02c0.442-0.236,0.873-0.493,1.306-0.761c1.285-0.771,2.519-1.624,3.691-2.57
				c1.717-1.367,3.311-2.899,4.74-4.575c1.285-1.501,2.447-3.115,3.455-4.832c1.121-1.871,2.066-3.855,2.807-5.933
				c0.37-1.049,0.699-2.118,0.967-3.218c0.206-0.771,0.37-1.553,0.514-2.345c0.349-1.974,0.534-4.01,0.534-6.086l7.948,0.041h0.041
				l1.388,0.01l6.744,0.031c0,2.035,0.175,4.03,0.514,5.974c0.134,0.802,0.309,1.594,0.514,2.375
				c0.257,1.079,0.576,2.139,0.936,3.166c0.74,2.098,1.676,4.103,2.796,5.984c0.915,1.563,1.954,3.033,3.105,4.421
				c1.501,1.84,3.198,3.506,5.059,4.996c0.391,0.319,0.781,0.628,1.183,0.915c0.359,0.268,0.729,0.524,1.1,0.771
				c0.082,0.062,0.154,0.113,0.236,0.164c0.37,0.247,0.74,0.494,1.131,0.72c0.421,0.258,0.854,0.515,1.285,0.751
				c0.072,0.02,0.134,0.052,0.185,0.093c0.905,0.504,1.799,1.028,2.673,1.573c0.422,0.257,0.843,0.524,1.255,0.822
				c0.853,0.545,1.686,1.141,2.498,1.758c0,0.011,0.011,0.011,0.011,0.011h0.01c1.039,0.771,2.046,1.593,3.033,2.437
				c0.987,0.843,1.933,1.728,2.848,2.643C142.499,172.023,148.616,185.656,148.616,200.748z"/>
			<path style="fill:#5AB7B2;" d="M148.616,200.748H39.541c0-6.158,1.018-12.091,2.91-17.612c0.339-0.997,0.71-1.983,1.11-2.961
				v-0.01c0.391-0.977,0.822-1.933,1.275-2.879c1.799-3.794,4.04-7.341,6.642-10.59c0.658-0.813,1.326-1.604,2.015-2.364
				c0.339-0.392,0.699-0.771,1.059-1.152c0.36-0.37,0.72-0.74,1.09-1.11c1.84-1.84,3.814-3.526,5.891-5.079
				c1.039-0.771,2.087-1.49,3.177-2.189c0.462-0.298,0.935-0.586,1.408-0.863c0.277-0.165,0.545-0.329,0.822-0.494
				c0.124-0.062,0.237-0.123,0.36-0.195c0.247-0.144,0.493-0.288,0.74-0.421c0.021-0.021,0.041-0.011,0.041-0.011v-0.01
				c0.442-0.247,0.873-0.494,1.306-0.751c1.285-0.781,2.519-1.646,3.67-2.591c0.01,0.01,0.01,0.01,0.021,0.021
				c5.326,5.449,12.739,8.832,20.964,8.853h0.082c0.453,0,0.905-0.011,1.347-0.041c7.69-0.34,14.62-3.65,19.668-8.802l0.01-0.01
				c0.73,0.606,1.491,1.172,2.272,1.696c0.082,0.062,0.154,0.113,0.236,0.164c0.37,0.247,0.75,0.483,1.131,0.72
				c0.421,0.258,0.854,0.504,1.285,0.741c0.072,0.021,0.124,0.062,0.185,0.092c0.905,0.504,1.799,1.028,2.673,1.584
				c0.422,0.257,0.843,0.524,1.255,0.822c0.853,0.545,1.686,1.141,2.498,1.758h0.021c1.039,0.781,2.056,1.594,3.033,2.447
				c0.987,0.843,1.933,1.728,2.848,2.643C142.499,172.023,148.616,185.656,148.616,200.748z"/>
			<path style="fill:#5AB7B2;" d="M110.925,135.585v6.262c0,0.986-0.309,1.901-0.843,2.652c-0.833,1.213-2.231,2.005-3.814,2.005
				H81.314c-1.398,0-2.652-0.617-3.496-1.594c-0.72-0.822-1.162-1.892-1.162-3.063v-6.262c0-1.769,0.987-3.311,2.437-4.092
				c0.658-0.36,1.419-0.566,2.221-0.566h24.953c0.926,0,1.779,0.267,2.498,0.74C110.061,132.481,110.925,133.94,110.925,135.585z"/>
			<path style="fill:#5AB7B2;" d="M116.323,150.41v13.654H66.119v-10.127c0.277-0.165,0.545-0.329,0.822-0.494
				c0.124-0.062,0.237-0.123,0.36-0.195c0.247-0.144,0.493-0.277,0.74-0.411c0.021-0.02,0.041-0.02,0.041-0.02
				c0.442-0.236,0.873-0.493,1.306-0.761c1.285-0.771,2.519-1.624,3.691-2.57c1.717-1.367,3.311-2.899,4.74-4.575
				c1.285-1.501,2.447-3.115,3.455-4.832h25.703c0.915,1.563,1.954,3.033,3.105,4.421c1.501,1.84,3.198,3.506,5.059,4.996
				C115.531,149.815,115.921,150.123,116.323,150.41z"/>
			<path style="fill:#141720;" d="M149.244,70.114c0,22.557-11.772,42.174-29.097,52.147c-5.336,3.084-11.206,5.243-17.417,6.292
				c-2.375,0.411-4.801,0.647-7.258,0.709c-0.463,0.011-0.925,0.02-1.388,0.02h-0.01c-2.899,0-5.737-0.236-8.513-0.699
				c-6.262-1.038-12.163-3.207-17.54-6.313c-17.324-9.962-29.107-29.59-29.107-52.157c0-31.862,23.462-57.843,52.867-59.118
				c0.041-0.01,0.072-0.01,0.113-0.01c0.288-0.01,0.576-0.021,0.864-0.031c0.432-0.01,0.853-0.02,1.285-0.02h0.041
				c0.442,0,0.884,0.01,1.326,0.02h0.093c0.308,0.01,0.617,0.021,0.925,0.041h0.031c0.144,0.01,0.288,0.021,0.432,0.031
				c0.175,0.01,0.35,0.021,0.524,0.031C126.326,12.918,149.244,38.632,149.244,70.114z"/>
			<path style="fill:#ECC19C;" d="M135.939,52.789v31.266c0,0.453-0.01,0.905-0.02,1.357c-0.01,0.37-0.021,0.73-0.042,1.1
				c-0.01,0.329-0.031,0.658-0.062,0.987c-0.01,0.236-0.031,0.473-0.051,0.71c-0.01,0.144-0.02,0.278-0.041,0.421
				c-0.021,0.257-0.042,0.524-0.083,0.781c-0.041,0.494-0.103,0.977-0.175,1.471c-0.01,0.123-0.031,0.247-0.051,0.37
				c-0.031,0.247-0.072,0.493-0.113,0.74v0.031c-0.062,0.36-0.123,0.709-0.185,1.069c-0.092,0.493-0.185,0.987-0.288,1.47
				c-0.01,0.021-0.01,0.041-0.021,0.062c-0.01,0.072-0.02,0.144-0.041,0.216c-0.01,0.021-0.01,0.041-0.02,0.062
				c-0.051,0.267-0.113,0.524-0.175,0.781c-0.021,0.113-0.041,0.226-0.082,0.339c-0.031,0.185-0.082,0.37-0.124,0.555
				c-0.031,0.103-0.051,0.216-0.092,0.318c-0.021,0.093-0.052,0.186-0.072,0.268c-0.216,0.843-0.462,1.665-0.72,2.488
				c-0.123,0.391-0.247,0.771-0.38,1.162c-0.01,0.041-0.031,0.082-0.041,0.124c-0.124,0.349-0.247,0.699-0.37,1.048
				c-0.041,0.103-0.082,0.205-0.124,0.319c-0.123,0.329-0.247,0.658-0.38,0.987c-0.154,0.401-0.319,0.792-0.483,1.183
				c-0.144,0.35-0.298,0.699-0.452,1.049c-0.021,0.062-0.051,0.113-0.072,0.175c-0.175,0.37-0.339,0.74-0.514,1.1
				c-0.175,0.38-0.36,0.761-0.555,1.141c-0.37,0.751-0.771,1.501-1.172,2.231l-0.556,0.987c-1.583,2.725-3.341,5.285-5.253,7.649
				c-0.257,0.34-0.524,0.668-0.802,0.987c-0.381,0.463-0.771,0.915-1.162,1.356c-0.329,0.371-0.668,0.751-1.018,1.111
				c-0.01,0.021-0.021,0.03-0.041,0.051c-0.987,1.06-1.995,2.066-3.022,3.013c-0.206,0.205-0.421,0.391-0.638,0.586
				c-0.35,0.318-0.699,0.627-1.059,0.926c-0.278,0.246-0.566,0.483-0.853,0.719c-0.74,0.607-1.481,1.193-2.231,1.738
				c-0.309,0.236-0.627,0.463-0.946,0.679c-0.514,0.37-1.038,0.72-1.563,1.059c-0.288,0.195-0.586,0.381-0.884,0.556
				c-0.051,0.03-0.093,0.062-0.144,0.082c-0.997,0.616-2.015,1.182-3.012,1.676c-0.257,0.134-0.514,0.257-0.771,0.38
				c-0.257,0.124-0.524,0.247-0.802,0.37c-0.339,0.154-0.678,0.299-1.018,0.432c-0.133,0.063-0.267,0.113-0.401,0.154
				c-0.401,0.165-0.812,0.319-1.213,0.453c-0.504,0.185-1.018,0.339-1.521,0.483c-0.35,0.103-0.71,0.195-1.059,0.277
				c-0.021,0.01-0.041,0.021-0.072,0.021c-0.35,0.082-0.699,0.164-1.048,0.226c-0.093,0.021-0.186,0.042-0.278,0.052
				c-0.288,0.052-0.576,0.102-0.864,0.134c-0.411,0.062-0.822,0.113-1.233,0.134c-0.144,0.021-0.278,0.03-0.422,0.03
				c-0.329,0.02-0.647,0.031-0.966,0.031h-0.041c-0.319,0-0.638-0.011-0.956-0.031c-0.124,0-0.247-0.01-0.371-0.03
				c-0.288-0.011-0.586-0.041-0.895-0.082c-0.062,0-0.133-0.011-0.195-0.021c-0.381-0.052-0.761-0.113-1.152-0.186
				c-0.329-0.052-0.658-0.123-0.997-0.205c-1.758-0.401-3.568-1.008-5.398-1.82c-1.563-0.689-3.146-1.521-4.719-2.488
				c-0.093-0.051-0.175-0.113-0.268-0.164c-0.699-0.432-1.409-0.895-2.098-1.378c-0.391-0.277-0.781-0.556-1.172-0.843
				c-1.224-0.895-2.436-1.871-3.629-2.92c-0.329-0.299-0.658-0.597-0.987-0.905c-0.329-0.298-0.658-0.606-0.977-0.904
				c-0.761-0.73-1.501-1.48-2.21-2.272c-0.051-0.041-0.092-0.093-0.133-0.134c-0.298-0.318-0.596-0.647-0.895-0.987
				c-0.823-0.925-1.625-1.881-2.385-2.878c-0.298-0.36-0.576-0.73-0.854-1.101c-1.039-1.378-2.025-2.817-2.951-4.308
				c-0.247-0.401-0.494-0.813-0.73-1.213c-0.288-0.483-0.565-0.977-0.843-1.47c-1.028-1.851-1.974-3.773-2.796-5.757
				c-0.123-0.288-0.247-0.576-0.35-0.864c-0.165-0.37-0.309-0.75-0.442-1.121c-0.206-0.545-0.401-1.09-0.587-1.635
				c-0.185-0.545-0.359-1.1-0.534-1.655c-0.165-0.535-0.319-1.069-0.463-1.614c-0.165-0.576-0.319-1.162-0.452-1.758
				c-0.01-0.062-0.031-0.123-0.042-0.185c-0.195-0.822-0.37-1.655-0.524-2.498c-0.205-1.111-0.37-2.242-0.493-3.383
				c-0.052-0.36-0.083-0.72-0.113-1.08c-0.041-0.38-0.072-0.751-0.092-1.131c-0.052-0.689-0.083-1.388-0.103-2.087
				c-0.01-0.453-0.021-0.905-0.021-1.357V52.789c0-22.341,17.509-40.601,39.563-41.794c0.041-0.01,0.072-0.01,0.113-0.01
				c0.288-0.01,0.576-0.021,0.864-0.031c0.432-0.01,0.853-0.02,1.285-0.02h0.041c0.442,0,0.884,0.01,1.326,0.02h0.093
				c0.308,0.01,0.617,0.021,0.925,0.041h0.031c0.144,0.01,0.288,0.021,0.432,0.031c0.309,0.021,0.617,0.041,0.915,0.072
				c0.154,0.01,0.298,0.021,0.453,0.041c0.103,0.01,0.195,0.021,0.298,0.031c1.635,0.175,3.239,0.442,4.802,0.792
				c2.725,0.617,5.346,1.501,7.834,2.622c3.393,1.522,6.549,3.475,9.387,5.809c2.385,1.954,4.555,4.154,6.446,6.58
				c5.511,7.022,8.831,15.844,8.904,25.446C135.939,52.543,135.939,52.666,135.939,52.789z"/>
			<path style="fill:#141720;" d="M145.275,68.283H42.893c0-30.813,21.684-55.941,48.888-57.288c0.041-0.01,0.072-0.01,0.113-0.01
				c0.288-0.01,0.576-0.021,0.864-0.031c0.432-0.01,0.853-0.02,1.285-0.02h0.041c0.442,0,0.884,0.01,1.326,0.02h0.093
				c0.308,0.01,0.617,0.021,0.925,0.041h0.031c0.144,0.01,0.288,0.021,0.432,0.031c0.175,0.01,0.35,0.021,0.524,0.031
				c0.124,0.01,0.257,0.021,0.391,0.042c0.154,0.01,0.298,0.021,0.453,0.041c0.103,0.01,0.195,0.021,0.298,0.031
				C124.732,13.7,145.275,38.303,145.275,68.283z"/>
		</g>
	</g>
</g>
<g>
</g>
<g>
</g>
<g>
</g>
<g>
</g>
<g>
</g>
<g>
</g>
<g>
</g>
<g>
</g>
<g>
</g>
<g>
</g>
<g>
</g>
<g>
</g>
<g>
</g>
<g>
</g>
<g>
</g>
</svg>
