<?xml version="1.0" encoding="iso-8859-1"?>
<!-- Generator: Adobe Illustrator 18.0.0, SVG Export Plug-In . SVG Version: 6.00 Build 0)  -->
<!DOCTYPE svg PUBLIC "-//W3C//DTD SVG 1.1//EN" "http://www.w3.org/Graphics/SVG/1.1/DTD/svg11.dtd">
<svg version="1.1" id="Capa_1" xmlns="http://www.w3.org/2000/svg" xmlns:xlink="http://www.w3.org/1999/xlink" x="0px" y="0px"
	 viewBox="0 0 188.148 188.148" style="enable-background:new 0 0 188.148 188.148;" xml:space="preserve">
<g>
	<g>
		<defs>
			<circle id="SVGID_1_" cx="94.074" cy="94.074" r="94.074"/>
		</defs>
		<use xlink:href="#SVGID_1_"  style="overflow:visible;fill:#7E6990;"/>
		<clipPath id="SVGID_2_">
			<use xlink:href="#SVGID_1_"  style="overflow:visible;"/>
		</clipPath>
		<g style="clip-path:url(#SVGID_2_);">
			<path style="fill:#ECC19C;" d="M148.645,200.743v0.01H39.57v-0.01c0-6.159,1.018-12.091,2.91-17.612
				c0.339-0.997,0.709-1.984,1.11-2.961v-0.01c0.391-0.977,0.822-1.933,1.275-2.878c1.799-3.794,4.041-7.341,6.642-10.59
				c0.658-0.813,1.327-1.604,2.015-2.365c0.339-0.391,0.699-0.771,1.059-1.152c0.36-0.37,0.72-0.74,1.09-1.11
				c1.84-1.841,3.814-3.527,5.891-5.079c1.039-0.771,2.087-1.491,3.177-2.19c0.391-0.247,0.781-0.494,1.182-0.73
				c0.175-0.103,0.36-0.206,0.535-0.309c0.535-0.319,1.069-0.627,1.614-0.925c0.021-0.021,0.041-0.021,0.041-0.021
				c0.442-0.237,0.874-0.494,1.306-0.761c1.285-0.771,2.519-1.625,3.691-2.57c3.773-3.002,6.899-6.786,9.14-11.094
				c0.71-1.367,1.337-2.786,1.861-4.246c1.306-3.64,2.016-7.557,2.016-11.649l7.947,0.041h0.021l8.153,0.042
				c0,4.04,0.689,7.917,1.963,11.515c0.514,1.471,1.131,2.889,1.84,4.257c2.231,4.328,5.347,8.132,9.12,11.145
				c0.74,0.606,1.491,1.162,2.283,1.686c0.082,0.062,0.154,0.113,0.236,0.165c0.37,0.247,0.74,0.494,1.131,0.72
				c0.422,0.257,0.854,0.514,1.285,0.75c0.072,0.021,0.134,0.051,0.185,0.092c0.483,0.268,0.967,0.545,1.439,0.833
				c0.412,0.236,0.823,0.483,1.234,0.74c0.421,0.257,0.843,0.524,1.254,0.822c0.853,0.545,1.686,1.142,2.498,1.758
				c0,0.01,0.01,0.01,0.01,0.01h0.011c1.038,0.771,2.046,1.594,3.033,2.436c0.987,0.843,1.933,1.728,2.848,2.643
				C142.527,172.017,148.645,185.65,148.645,200.743z"/>
			<path style="fill:#1C5A7D;" d="M148.645,200.743H39.57c0-6.159,1.018-12.091,2.91-17.612c0.339-0.997,0.709-1.984,1.11-2.961
				v-0.01c0.391-0.977,0.822-1.933,1.275-2.878c1.799-3.794,4.041-7.341,6.642-10.59c0.658-0.813,1.327-1.604,2.015-2.365
				c0.339-0.391,0.699-0.771,1.059-1.152c0.36-0.37,0.72-0.74,1.09-1.11c1.84-1.841,3.814-3.527,5.891-5.079
				c1.039-0.771,2.087-1.491,3.177-2.19c0.391-0.247,0.781-0.494,1.182-0.73c0.175-0.113,0.35-0.216,0.524-0.319
				c0.535-0.319,1.08-0.627,1.625-0.925c0.021-0.021,0.041-0.01,0.041-0.01v-0.01c0.442-0.247,0.874-0.494,1.306-0.75
				c1.285-0.782,2.519-1.645,3.67-2.591c0.01,0.01,0.01,0.01,0.021,0.02c5.326,5.449,12.739,8.832,20.964,8.852h0.082
				c8.225,0,15.669-3.393,21.015-8.842l0.01-0.01c0.73,0.607,1.491,1.172,2.272,1.696c0.082,0.062,0.154,0.113,0.236,0.165
				c0.37,0.247,0.75,0.483,1.131,0.72c0.422,0.257,0.854,0.504,1.285,0.74c0.072,0.021,0.123,0.062,0.185,0.092
				c0.483,0.268,0.977,0.545,1.45,0.833c0.411,0.247,0.823,0.494,1.224,0.751c0.421,0.257,0.843,0.524,1.254,0.822
				c0.853,0.545,1.686,1.142,2.498,1.758h0.021c1.038,0.781,2.056,1.594,3.033,2.447c0.987,0.843,1.933,1.728,2.848,2.643
				C142.527,172.017,148.645,185.65,148.645,200.743z"/>
			<g>
				<path style="fill:#7CA6BA;" d="M121.738,153.727l-0.01,0.01l-1.121,1.141c-7.053,7.187-16.471,11.145-26.516,11.145
					c-0.01,0-0.01,0-0.021,0c-10.137-0.031-19.524-3.989-26.546-11.165l-1.069-1.1l-0.01-0.01c0.535-0.319,1.08-0.627,1.625-0.925
					c0.021-0.021,0.041-0.01,0.041-0.01v-0.01c0.442-0.247,0.874-0.494,1.306-0.75c1.285-0.782,2.519-1.645,3.67-2.591
					c0.01,0.01,0.01,0.01,0.021,0.02c5.326,5.449,12.739,8.832,20.964,8.852h0.082c8.225,0,15.669-3.393,21.015-8.842l0.01-0.01
					c0.73,0.607,1.491,1.172,2.272,1.696c0.082,0.062,0.154,0.113,0.236,0.165c0.37,0.247,0.75,0.483,1.131,0.72
					c0.422,0.257,0.854,0.504,1.285,0.74c0.072,0.021,0.123,0.062,0.185,0.092C120.772,153.161,121.266,153.439,121.738,153.727z"/>
			</g>
			<g>
				<path style="fill:#ECC19C;" d="M135.968,64.094V89.19c0,0.452-0.01,0.905-0.02,1.357c-0.01,0.349-0.021,0.699-0.041,1.048
					c-0.01,0.35-0.031,0.689-0.062,1.038c-0.01,0.236-0.031,0.473-0.051,0.71c-0.01,0.144-0.02,0.277-0.041,0.421
					c-0.02,0.257-0.041,0.524-0.082,0.781c-0.021,0.247-0.041,0.494-0.082,0.74c-0.021,0.237-0.051,0.483-0.093,0.73
					c-0.092,0.74-0.216,1.48-0.35,2.21c-0.092,0.494-0.185,0.987-0.288,1.471c-0.01,0.021-0.01,0.041-0.02,0.062
					c-0.01,0.072-0.021,0.144-0.041,0.216c-0.01,0.021-0.01,0.041-0.021,0.062c0,0.021,0,0.041-0.01,0.062
					c-0.021,0.103-0.041,0.206-0.072,0.308c-0.02,0.123-0.051,0.247-0.082,0.37c-0.02,0.134-0.052,0.257-0.093,0.381
					c-0.031,0.185-0.082,0.37-0.124,0.555c-0.031,0.103-0.051,0.216-0.092,0.319c-0.021,0.093-0.051,0.185-0.072,0.268
					c-0.216,0.843-0.463,1.665-0.72,2.488c-0.123,0.391-0.247,0.771-0.38,1.162c-0.011,0.041-0.031,0.082-0.042,0.123
					c-0.123,0.35-0.247,0.699-0.37,1.049c-0.041,0.103-0.082,0.205-0.123,0.319c-0.124,0.329-0.247,0.658-0.38,0.987
					c-0.154,0.401-0.319,0.792-0.483,1.183c-0.144,0.35-0.298,0.699-0.453,1.048c-0.02,0.062-0.051,0.113-0.072,0.175
					c-0.175,0.37-0.339,0.74-0.514,1.1c-0.175,0.38-0.36,0.761-0.555,1.142c-0.37,0.75-0.771,1.501-1.172,2.231l-0.555,0.987
					c-1.584,2.725-3.342,5.285-5.254,7.649c-0.257,0.339-0.524,0.668-0.802,0.987c-0.381,0.463-0.771,0.915-1.162,1.357
					c-0.35,0.391-0.699,0.781-1.059,1.162c-0.987,1.059-1.995,2.067-3.023,3.013c-0.206,0.206-0.421,0.391-0.638,0.586
					c-0.35,0.319-0.699,0.627-1.059,0.925c-0.278,0.247-0.565,0.483-0.854,0.72c-0.74,0.606-1.48,1.192-2.231,1.737
					c-0.309,0.237-0.627,0.463-0.946,0.679c-0.514,0.37-1.039,0.72-1.563,1.059c-0.288,0.195-0.586,0.38-0.884,0.555
					c-0.956,0.596-1.933,1.141-2.889,1.624c-0.092,0.051-0.174,0.092-0.267,0.133c-0.257,0.134-0.514,0.257-0.771,0.381
					c-0.257,0.123-0.524,0.247-0.802,0.37c-0.339,0.154-0.678,0.298-1.018,0.432c-0.134,0.061-0.268,0.113-0.401,0.154
					c-0.401,0.164-0.813,0.319-1.213,0.452c-0.504,0.185-1.018,0.339-1.521,0.483c-0.35,0.103-0.709,0.195-1.059,0.277
					c-0.021,0.011-0.041,0.021-0.072,0.021c-0.35,0.082-0.699,0.164-1.049,0.226c-0.093,0.021-0.185,0.041-0.278,0.051
					c-0.288,0.051-0.576,0.103-0.864,0.134c-0.411,0.061-0.822,0.113-1.233,0.134c-0.144,0.021-0.278,0.031-0.421,0.031
					c-0.329,0.02-0.658,0.031-0.977,0.031h-0.031c-0.319,0-0.637-0.01-0.956-0.031c-0.124,0-0.247-0.01-0.37-0.031
					c-0.288-0.011-0.586-0.041-0.895-0.082c-0.062,0-0.134-0.01-0.195-0.021c-0.38-0.051-0.761-0.113-1.152-0.185
					c-0.329-0.051-0.658-0.123-0.997-0.205c-1.758-0.401-3.567-1.008-5.398-1.82c-0.617-0.278-1.244-0.565-1.861-0.895
					c-0.956-0.473-1.912-1.008-2.858-1.594c-0.792-0.483-1.584-0.997-2.365-1.542c-0.391-0.278-0.781-0.555-1.172-0.843
					c-1.223-0.895-2.437-1.871-3.629-2.92c-0.329-0.298-0.658-0.596-0.987-0.905c-0.329-0.298-0.658-0.606-0.977-0.905
					c-0.802-0.771-1.583-1.573-2.344-2.406c-0.298-0.319-0.596-0.647-0.895-0.987c-0.822-0.925-1.625-1.881-2.385-2.879
					c-0.298-0.36-0.576-0.73-0.853-1.1c-1.038-1.377-2.025-2.817-2.951-4.308c-0.247-0.401-0.493-0.813-0.73-1.213
					c-0.288-0.483-0.565-0.977-0.843-1.47c-1.028-1.851-1.974-3.773-2.797-5.758c-0.123-0.288-0.247-0.576-0.35-0.863
					c-0.164-0.37-0.308-0.75-0.442-1.121c-0.206-0.545-0.401-1.09-0.586-1.635c-0.185-0.545-0.36-1.1-0.535-1.655
					c-0.165-0.535-0.319-1.069-0.463-1.614c-0.164-0.576-0.318-1.162-0.452-1.758c-0.01-0.062-0.031-0.124-0.041-0.185
					c-0.195-0.822-0.37-1.655-0.524-2.499c-0.206-1.11-0.37-2.241-0.494-3.382c-0.051-0.36-0.082-0.72-0.113-1.08
					c-0.041-0.38-0.072-0.751-0.092-1.131c-0.051-0.689-0.082-1.388-0.103-2.087c-0.01-0.453-0.021-0.905-0.021-1.357V64.094
					c0-5.747,1.162-11.227,3.259-16.214c0.051-0.144,0.113-0.277,0.175-0.411c0.813-1.881,1.758-3.691,2.838-5.418
					c0.165-0.277,0.339-0.545,0.514-0.812c7.464-11.433,20.368-18.99,35.039-19h0.041c3.188,0,6.292,0.36,9.274,1.028
					c2.725,0.617,5.346,1.501,7.834,2.622c3.393,1.521,6.549,3.475,9.387,5.809c2.385,1.953,4.555,4.153,6.446,6.58
					c0.74,0.946,1.439,1.922,2.098,2.93c0.185,0.277,0.37,0.555,0.535,0.843c1.069,1.717,2.025,3.517,2.837,5.398l0.185,0.432
					c2.056,4.884,3.208,10.23,3.249,15.844C135.968,63.847,135.968,63.97,135.968,64.094z"/>
				<path style="fill:#D4DCE6;" d="M135.968,89.19c0,0.452-0.01,0.905-0.02,1.357c-0.01,0.349-0.021,0.699-0.041,1.048
					c-0.01,0.35-0.031,0.689-0.062,1.038c-0.01,0.236-0.031,0.473-0.051,0.71c-0.01,0.144-0.02,0.277-0.041,0.421
					c-0.02,0.257-0.041,0.524-0.082,0.781c-0.021,0.247-0.051,0.494-0.082,0.74c-0.021,0.237-0.051,0.483-0.093,0.73
					c-0.092,0.74-0.216,1.48-0.35,2.21c-0.082,0.432-0.164,0.854-0.257,1.275c-0.01,0.093-0.031,0.175-0.051,0.257
					c-0.01,0.072-0.021,0.144-0.041,0.216c-0.01,0.021-0.01,0.041-0.021,0.062c0,0.021,0,0.041-0.01,0.062c0,0.01,0,0.021,0,0.021
					c-0.021,0.113-0.051,0.226-0.072,0.329c-0.02,0.113-0.051,0.226-0.082,0.329c-0.02,0.134-0.052,0.257-0.093,0.381
					c-0.041,0.205-0.093,0.401-0.154,0.596c-0.01,0.092-0.031,0.185-0.061,0.277c-0.021,0.093-0.051,0.185-0.072,0.268
					c-0.216,0.843-0.463,1.665-0.72,2.488c-0.123,0.391-0.247,0.771-0.38,1.162c-0.011,0.041-0.031,0.082-0.042,0.123
					c-0.123,0.35-0.247,0.699-0.37,1.049c-0.041,0.103-0.082,0.205-0.123,0.319c-0.124,0.329-0.247,0.658-0.38,0.987
					c-0.154,0.401-0.319,0.792-0.483,1.183c-0.144,0.35-0.298,0.699-0.453,1.048c-0.02,0.062-0.051,0.113-0.072,0.175
					c-0.175,0.37-0.339,0.74-0.514,1.1c-0.175,0.38-0.36,0.761-0.555,1.142c-0.37,0.75-0.771,1.501-1.172,2.231l-0.555,0.987
					c-1.584,2.725-3.342,5.285-5.254,7.649c-0.257,0.339-0.524,0.668-0.802,0.987c-0.381,0.463-0.771,0.915-1.162,1.357
					c-0.35,0.391-0.699,0.781-1.059,1.162c-0.987,1.059-1.995,2.067-3.023,3.013c-0.206,0.206-0.421,0.391-0.638,0.586
					c-0.35,0.319-0.699,0.627-1.059,0.925c-0.278,0.247-0.565,0.483-0.854,0.72c-0.74,0.606-1.48,1.192-2.231,1.737
					c-0.309,0.237-0.627,0.463-0.946,0.679c-0.514,0.37-1.039,0.72-1.563,1.059c-0.288,0.195-0.586,0.38-0.884,0.555
					c-0.956,0.596-1.933,1.141-2.889,1.624c-0.092,0.051-0.174,0.092-0.267,0.133c-0.257,0.134-0.514,0.257-0.771,0.381
					c-0.257,0.123-0.524,0.247-0.802,0.37c-0.339,0.154-0.678,0.298-1.018,0.432c-0.134,0.061-0.268,0.113-0.401,0.154
					c-0.401,0.164-0.813,0.319-1.213,0.452c-0.504,0.185-1.018,0.339-1.521,0.483c-0.35,0.103-0.709,0.195-1.059,0.277
					c-0.021,0.011-0.041,0.021-0.072,0.021c-0.35,0.082-0.699,0.164-1.049,0.226c-0.093,0.021-0.185,0.041-0.278,0.051
					c-0.288,0.051-0.576,0.103-0.864,0.134c-0.411,0.061-0.822,0.113-1.233,0.134c-0.144,0.021-0.278,0.031-0.421,0.031
					c-0.329,0.02-0.658,0.031-0.977,0.031h-0.031c-0.319,0-0.637-0.01-0.956-0.031c-0.124,0-0.247-0.01-0.37-0.031
					c-0.288-0.011-0.586-0.041-0.895-0.082c-0.062,0-0.134-0.01-0.195-0.021c-0.38-0.051-0.761-0.113-1.152-0.185
					c-0.329-0.051-0.658-0.123-0.997-0.205c-1.758-0.401-3.567-1.008-5.398-1.82c-0.617-0.278-1.244-0.565-1.861-0.895
					c-0.956-0.473-1.912-1.008-2.858-1.594c-0.792-0.473-1.573-0.987-2.365-1.542c-0.391-0.278-0.781-0.555-1.172-0.843
					c-1.223-0.895-2.437-1.871-3.629-2.92c-0.329-0.298-0.658-0.596-0.987-0.905c-0.329-0.298-0.658-0.606-0.977-0.905
					c-0.802-0.771-1.583-1.573-2.344-2.406c-0.298-0.319-0.596-0.647-0.895-0.987c-0.822-0.925-1.625-1.881-2.385-2.879
					c-0.298-0.36-0.576-0.73-0.853-1.1c-1.038-1.377-2.025-2.817-2.951-4.308c-0.247-0.401-0.493-0.813-0.73-1.213
					c-0.288-0.483-0.565-0.977-0.843-1.47c-1.028-1.851-1.974-3.773-2.797-5.758c-0.123-0.288-0.247-0.576-0.35-0.863
					c-0.164-0.37-0.308-0.75-0.442-1.121c-0.206-0.545-0.401-1.09-0.586-1.635c-0.185-0.545-0.36-1.1-0.535-1.655
					c-0.165-0.535-0.319-1.069-0.463-1.614c-0.164-0.576-0.318-1.162-0.452-1.758c-0.01-0.062-0.031-0.124-0.041-0.185
					c-0.195-0.822-0.37-1.655-0.524-2.499c-0.206-1.11-0.37-2.241-0.494-3.382c-0.051-0.36-0.082-0.72-0.113-1.08
					c-0.041-0.38-0.072-0.751-0.092-1.131c-0.051-0.689-0.082-1.388-0.103-2.087c-0.01-0.453-0.021-0.905-0.021-1.357l6.683,13.14
					l11.484,5.007l13.582,1.224h0.01l10.065,0.915h0.062l9.418,0.854c0.01,0,0.01,0,0.01,0l21.005,1.892L135.968,89.19z"/>
				<g>
					<path style="fill:#D4DCE6;" d="M94.153,95.791l-0.01,10.127v0.011l-0.01,3.547v2.786l-0.01,9.253v0.01l-0.01-0.01h-0.01
						l-0.01-0.01l-0.021-0.01l-40.437-20.583c-0.01-0.062-0.031-0.124-0.041-0.185c-0.195-0.822-0.37-1.655-0.524-2.499
						c-0.206-1.11-0.37-2.241-0.494-3.382c-0.051-0.36-0.082-0.72-0.113-1.08c-0.041-0.38-0.072-0.751-0.092-1.131
						c-0.051-0.689-0.082-1.388-0.103-2.087c-0.01-0.453-0.021-0.905-0.021-1.357V76.904c0,0.175,0.01,0.35,0.01,0.524
						c0,0.123,0.01,0.247,0.021,0.37c0.102,2.868,0.576,6.004,1.449,9.212c0.709,2.57,1.594,4.945,2.622,7.064v0.01
						c2.694,5.603,6.302,9.407,9.624,10.024c0.205,0.031,0.421,0.051,0.627,0.072c1.285,0.144,2.632,0.226,4.02,0.226
						c5.243,0,9.901-4.215,12.831-5.922c0.021-0.01,0.041-0.021,0.062-0.031c0.154-0.093,0.309-0.185,0.442-0.278
						c0.041-0.031,0.082-0.051,0.123-0.072c2.468-1.409,6.025-2.303,9.994-2.313H94.153z"/>
					<path style="fill:#D4DCE6;" d="M135.981,76.899l-0.01,12.286c0,3.084-0.288,6.107-0.822,9.037
						c-0.216,1.172-0.463,2.334-0.75,3.485l-9.49,13.705l-30.783,6.097h-0.01l-0.01,0.01v-0.01l-0.031-25.728h0.082
						c3.968,0.01,7.536,0.905,10.003,2.313c0.041,0.021,0.072,0.041,0.113,0.072c0.144,0.092,0.298,0.185,0.452,0.277
						c0.01,0.011,0.031,0.021,0.052,0.031c2.94,1.707,7.587,5.925,12.831,5.925c1.388,0,2.735-0.082,4.02-0.226
						c0.216-0.021,0.421-0.041,0.637-0.072c3.31-0.617,6.93-4.421,9.613-10.024v-0.01c1.028-2.118,1.912-4.493,2.622-7.063
						c0.925-3.393,1.409-6.704,1.47-9.716C135.981,77.156,135.981,77.033,135.981,76.899z"/>
				</g>
				<ellipse style="fill:#ECC19C;" cx="94.107" cy="109.091" rx="10.255" ry="3.17"/>
				<path style="fill:#1A1A1A;" d="M130.776,63.477c0-0.175-0.124-0.329-0.298-0.35c-1.47-0.226-8.091-1.131-15.206-1.131
					c-8.071,0-18.486,2.529-20.306,2.529h-1.614c-0.843,0-3.557-0.545-7.032-1.131c-3.989-0.679-8.976-1.398-13.273-1.398
					c-5.212,0-10.147,0.494-12.996,0.833c-1.049,0.123-1.81,0.236-2.21,0.298c-0.175,0.021-0.298,0.175-0.298,0.35l-0.082,4.338
					c0,0.154,0.092,0.288,0.226,0.35l0.494,0.165c0.73,0.278,0.668,13.355,4.565,16.625c2.313,1.923,4.38,3.023,13.067,3.023
					c5.028,0,8.194-1.357,11.196-5.408c2.159-2.91,4.082-9.788,4.082-9.788c0.555-2.735,2.539-3.043,2.981-3.084
					c0.01,0,0.01,0,0.021,0h0.031c0.021,0,0.031,0,0.031,0c0.072,0,2.458,0.041,3.074,3.084c0,0,1.923,6.878,4.082,9.788
					c3.002,4.051,6.168,5.408,11.196,5.408c8.688,0,10.754-1.1,13.067-3.023c3.896-3.27,3.835-16.347,4.565-16.625l0.494-0.165
					c0.134-0.062,0.226-0.195,0.226-0.35L130.776,63.477z M87.008,78.95c-1.285,3.023-4.575,6.919-9.222,7.156
					c-13.931,0.699-14.568-3.187-15.474-6.271c-0.905-3.085-1.141-5.789-0.781-8.863c0.36-3.084,1.141-4.894,2.54-5.798
					c0.596-0.401,1.254-0.761,2.93-1.018c1.501-0.216,3.814-0.35,7.67-0.35c2.241,0,4.329,0.175,6.2,0.473
					c4.955,0.802,8.307,2.488,8.307,4.143C89.177,69.563,88.89,74.478,87.008,78.95z M126.005,79.835
					c-0.905,3.084-1.542,6.971-15.474,6.271c-4.647-0.236-7.947-4.133-9.222-7.156c-1.882-4.472-2.169-9.387-2.169-10.528
					c0-2.282,6.343-4.616,14.507-4.616c8.153,0,9.459,0.607,10.6,1.368c1.398,0.905,2.18,2.714,2.54,5.798
					C127.146,74.046,126.91,76.75,126.005,79.835z"/>
				<g>
					<path style="fill:#D4DCE6;" d="M136.061,47.87c-0.011,0-0.011,0.01-0.021,0.01H52.247c0-29.6,19.946-28.407,41.825-25.971
						c0.01,0,0.01,0,0.021,0c1.553,0.175,3.115,0.35,4.678,0.524c16.368,1.82,29.692-5.254,36.365-11.515
						C144.213,17.386,145.828,41.259,136.061,47.87z"/>
					<path style="fill:#D4DCE6;" d="M66.846,46.132l-0.226,0.709c-0.113,0.349-0.226,0.699-0.35,1.038
						c-0.103,0.278-0.195,0.555-0.309,0.823c-1.922,5.141-4.832,9.85-8.4,14.065c-2.508,2.971-5.027,7.742-5.284,15.031
						c-0.021,0.421-0.031,0.843-0.031,1.285v-14.99c0-8.492,0-16.214,0-16.214l3.434-0.411l3.352-0.401l3.948-0.473L66.846,46.132z"
						/>
					<path style="fill:#D4DCE6;" d="M136.176,47.883l-14.595-1.742l0.227,0.705c1.889,5.875,5.074,11.208,9.055,15.924
						c2.657,3.148,5.314,8.302,5.314,16.323C136.176,68.105,136.176,47.883,136.176,47.883z"/>
					<ellipse style="fill:#D4DCE6;" cx="94.07" cy="46.141" rx="31.19" ry="5.912"/>
				</g>
			</g>
		</g>
	</g>
</g>
<g>
</g>
<g>
</g>
<g>
</g>
<g>
</g>
<g>
</g>
<g>
</g>
<g>
</g>
<g>
</g>
<g>
</g>
<g>
</g>
<g>
</g>
<g>
</g>
<g>
</g>
<g>
</g>
<g>
</g>
</svg>
